# xmcd
#
# Track frame offsets: 
#        150
#        18339
#        29362
#        45792
#        56760
#        74200
#        83098
#        95192
#        105712
#        119648
#        130594
#        144334
#        161621
#        170573
#        182598
#        201785
#        213388
#        224239
#        238056
#        247497
#        255337
#        264396
#        275019
#
# Disc length: 3752 seconds
#
# Revision: 0
# Processed by: cddbd v1.5.2PL0 Copyright (c) Steve Scherf et al.
# Submitted via: ExactAudioCopy v0.95a5
#
DISCID=640ea617
DTITLE=Schotenrieter, De - Shanty-Chor Der Wassersportvereinigung Mönk
DTITLE=eberg - Wenn Wi De Schönen Leeder Sing
DYEAR=2001
DGENRE=A Cappella
TTITLE0=Wenn Wi De Schönen Leeder Singt - Besanschot An
TTITLE1=Gorch Fock-Lied
TTITLE2=Un Denn Segelt Wi So Langsam Rund Kap Horn
TTITLE3=Ein Köm Und Ein Bier
TTITLE4=Oh, Signorina
TTITLE5=I Am Sailing
TTITLE6=Baltimore Song
TTITLE7=Schwer Mit Den Schätzen Des Orients Beladen
TTITLE8=De Hoffnung
TTITLE9=Sloop ''John ''
TTITLE10=Rolling Home
TTITLE11=Nimm Uns Mit Kapitän Auf Die Reise
TTITLE12=Samoa Song
TTITLE13=Die Meerjungfrau
TTITLE14=Seemannsgarn
TTITLE15=Wenn Nei Sturm Und Wetterlicht
TTITLE16=De Olle Brigg
TTITLE17=Lieder, So Schön Wie Der Norden
TTITLE18=In Amsterdam
TTITLE19=Oh, Roll The Cotton Down
TTITLE20=Kari Waits For Me
TTITLE21=Sie Hieß ''Mary Ann''
TTITLE22=Bis Zum Nächsten Mal
EXTD=
EXTT0=
EXTT1=
EXTT2=
EXTT3=
EXTT4=
EXTT5=
EXTT6=
EXTT7=
EXTT8=
EXTT9=
EXTT10=
EXTT11=
EXTT12=
EXTT13=
EXTT14=
EXTT15=
EXTT16=
EXTT17=
EXTT18=
EXTT19=
EXTT20=
EXTT21=
EXTT22=
PLAYORDER=
